<svg height='300px' width='300px'  fill="#1a1a1a" xmlns="http://www.w3.org/2000/svg" xmlns:xlink="http://www.w3.org/1999/xlink" version="1.1" x="0px" y="0px" viewBox="0 0 80 80" style="enable-background:new 0 0 80 80;" xml:space="preserve"><g><g><path d="M40,40.9942474c-6.1953125,0-11.2353516,5.0400391-11.2353516,11.2348633S33.8046875,63.463974,40,63.463974    s11.2353516-5.0400391,11.2353516-11.2348633S46.1953125,40.9942474,40,40.9942474z M40,51.2291107    c2.2539063,0,4.0878906,1.8339844,4.0878906,4.0878906c0,1.9085083-1.3198853,3.5026855-3.0908203,3.9509277v0.548584    c0,0.5522461-0.4472656,1-1,1s-1-0.4477539-1-1v-0.550354c-1.7678833-0.4503174-3.0849609-2.0427856-3.0849609-3.9491577    c0-0.5522461,0.4472656-1,1-1s1,0.4477539,1,1c0,1.1446533,0.9260864,2.0755005,2.0682373,2.0863647    c0.0059204-0.0001221,0.0108032-0.0033569,0.0167236-0.0033569c0.0066528,0,0.012085,0.0036621,0.0186768,0.0037842    c1.144043-0.008728,2.0721436-0.9407959,2.0721436-2.086792c0-1.1513672-0.9365234-2.0878906-2.0878906-2.0878906    c-2.2539063,0-4.0878906-1.8339844-4.0878906-4.0883789c0-1.9059448,1.3170776-3.4983521,3.0849609-3.9486694v-0.550354    c0-0.5522461,0.4472656-1,1-1s1,0.4477539,1,1v0.548584c1.7709351,0.4482422,3.0908203,2.0422974,3.0908203,3.9504395    c0,0.5522461-0.4472656,1-1,1s-1-0.4477539-1-1c0-1.1459351-0.9281006-2.0775757-2.0720825-2.0863037    c-0.0065918,0.0001221-0.012085,0.0037842-0.0187378,0.0037842c-0.0059204,0-0.0108032-0.0032349-0.0167236-0.0033569    c-1.1421509,0.0108643-2.0682373,0.9412231-2.0682373,2.0858765C37.9121094,50.292099,38.8486328,51.2291107,40,51.2291107z"></path></g><g><path d="M70.8900146,40.0737152l-9.1799927-9.9699707V11.0537567c0-0.5499878-0.4500122-1-1-1H51.289978    c-0.5499878,0-1,0.4500122-1,1v6.6400146L40.7399902,7.3137665c-0.3800049-0.4100342-1.0999756-0.4100342-1.4799805,0    L9.1099854,40.0737152c-0.2699585,0.2900391-0.3399658,0.710022-0.1799927,1.0700073    c0.1600342,0.3699951,0.5200195,0.6000366,0.9100342,0.6000366h7.9499512v30.25c0,0.5499878,0.4400024,1,1,1H61.210022    c0.5599976,0,1-0.4500122,1-1v-30.25h7.9499512c0.3900146,0,0.75-0.2300415,0.9100342-0.6000366    C71.2299805,40.7837372,71.1599731,40.3637543,70.8900146,40.0737152z M40,65.463974    c-7.2978516,0-13.2353516-5.9370117-13.2353516-13.2348633S32.7021484,38.9942474,40,38.9942474    s13.2353516,5.9370117,13.2353516,13.2348633S47.2978516,65.463974,40,65.463974z"></path></g></g></svg>